<svg width="17" height="17" viewBox="0 0 17 17" fill="none" xmlns="http://www.w3.org/2000/svg">
<path fill-rule="evenodd" clip-rule="evenodd" d="M9.50169 1.31152C9.50169 0.759239 9.05398 0.311523 8.50169 0.311523C7.94941 0.311523 7.50169 0.759239 7.50169 1.31152V7.50233H1.31152C0.759239 7.50233 0.311523 7.95004 0.311523 8.50233C0.311523 9.05461 0.759239 9.50233 1.31152 9.50233H7.50169V15.693C7.50169 16.2453 7.94941 16.693 8.50169 16.693C9.05398 16.693 9.50169 16.2453 9.50169 15.693V9.50233H15.693C16.2453 9.50233 16.693 9.05461 16.693 8.50233C16.693 7.95004 16.2453 7.50233 15.693 7.50233H9.50169V1.31152Z" fill="white"/>
</svg>
