<svg width="40" height="32" viewBox="0 0 40 32" fill="none" xmlns="http://www.w3.org/2000/svg">
<path d="M33.6848 18.9008C36.1402 20.7736 38.3348 25.489 38.3348 28.3944C38.3348 29.2996 37.6878 30.0333 36.8898 30.0333H36.0098M26.7098 11.2242C28.2982 10.2862 29.3669 8.53302 29.3669 6.52501C29.3669 4.51699 28.2982 2.76378 26.7098 1.82577M2.5797 30.0333H28.0327C28.8307 30.0333 29.4776 29.2996 29.4776 28.3944C29.4776 22.7049 24.8213 18.0926 15.3062 18.0926C5.79109 18.0926 1.13477 22.7049 1.13477 28.3944C1.13477 29.2996 1.78168 30.0333 2.5797 30.0333ZM20.6205 6.52501C20.6205 9.52115 18.2412 11.95 15.3062 11.95C12.3712 11.95 9.99191 9.52115 9.99191 6.52501C9.99191 3.52886 12.3712 1.10001 15.3062 1.10001C18.2412 1.10001 20.6205 3.52886 20.6205 6.52501Z" stroke="white" stroke-width="2.06667" stroke-linecap="round"/>
</svg>
