<svg width="32" height="31" viewBox="0 0 32 31" fill="none" xmlns="http://www.w3.org/2000/svg">
<path d="M21.5959 18.2936C21.4779 18.4171 21.313 18.4958 21.1191 18.4971C20.7442 18.4997 20.4217 18.1919 20.4068 17.8173L20.1233 10.6615L12.9621 10.7111C12.5873 10.7137 12.2647 10.4058 12.2499 10.0313C12.2351 9.65668 12.533 9.34453 12.9079 9.34194L20.7542 9.28762C21.1291 9.28502 21.4516 9.59287 21.4664 9.96745L21.777 17.8078C21.7847 18.0016 21.7138 18.17 21.5959 18.2936Z" fill="white"/>
<path d="M21.186 10.5634L10.739 21.508C10.4845 21.7746 10.045 21.7777 9.76955 21.5147C9.49407 21.2518 9.47667 20.8126 9.73118 20.546L20.1781 9.60136C20.4326 9.33474 20.8721 9.33169 21.1476 9.59465C21.4231 9.85761 21.4405 10.2968 21.186 10.5634Z" fill="white"/>
</svg>
