<svg width="38" height="38" viewBox="0 0 38 38" fill="none" xmlns="http://www.w3.org/2000/svg">
<path d="M8.43711 30.3267C9.15192 29.5261 12.4997 25.842 13.4808 25.842H23.854C25.2757 25.842 28.1779 28.8959 28.8971 29.9723M33.5471 19.1667C33.5471 27.3847 26.8851 34.0467 18.6671 34.0467C10.4491 34.0467 3.78711 27.3847 3.78711 19.1667C3.78711 10.9487 10.4491 4.28668 18.6671 4.28668C26.8851 4.28668 33.5471 10.9487 33.5471 19.1667ZM23.9973 14.095C23.9973 11.2562 21.6008 8.93668 18.6676 8.93668C15.7344 8.93668 13.3378 11.2562 13.3378 14.095C13.3378 16.9339 15.7344 19.2534 18.6676 19.2534C21.6007 19.2534 23.9973 16.9339 23.9973 14.095Z" stroke="white" stroke-width="2.06667"/>
</svg>
