<svg width="24" height="25" viewBox="0 0 24 25" fill="none" xmlns="http://www.w3.org/2000/svg">
<path d="M21.7512 9.18946L15.3119 2.75C15.0303 2.46919 14.6488 2.31151 14.2512 2.31152C13.8535 2.31154 13.4721 2.46926 13.1905 2.7501L10.8357 5.10492L5.39322 7.14586C5.14697 7.23865 4.92937 7.39441 4.76215 7.59759C4.59493 7.80078 4.48394 8.04428 4.44025 8.30377L2.49338 19.9848C2.48032 20.0631 2.49249 20.1436 2.52813 20.2146C2.56378 20.2856 2.62105 20.3435 2.6917 20.3799C2.76235 20.4162 2.84272 20.4292 2.92121 20.4169C2.99971 20.4046 3.07228 20.3677 3.12846 20.3116L8.29261 15.1473C7.92121 14.5175 7.79228 13.7739 7.92997 13.0559C8.06767 12.3378 8.46255 11.6947 9.04057 11.247C9.61859 10.7993 10.3401 10.5778 11.0697 10.624C11.7994 10.6703 12.4871 10.9811 13.004 11.4981C13.5209 12.0152 13.8314 12.7031 13.8774 13.4328C13.9233 14.1625 13.7015 14.8838 13.2536 15.4617C12.8057 16.0395 12.1624 16.4342 11.4443 16.5716C10.7262 16.709 9.98264 16.5798 9.35301 16.2081L4.18821 21.3731C4.13203 21.4293 4.09515 21.5019 4.08288 21.5804C4.07061 21.6589 4.08359 21.7392 4.11995 21.8099C4.1563 21.8805 4.21415 21.9378 4.28516 21.9734C4.35617 22.0091 4.43666 22.0212 4.51503 22.0082L16.1975 20.0611C16.457 20.0174 16.7005 19.9064 16.9037 19.7392C17.1069 19.572 17.2626 19.3544 17.3554 19.1082L19.3964 13.6657L21.7511 11.3108C21.8904 11.1716 22.001 11.0062 22.0764 10.8242C22.1518 10.6422 22.1906 10.4472 22.1906 10.2502C22.1906 10.0532 22.1518 9.85811 22.0764 9.67611C22.001 9.49411 21.8905 9.32875 21.7512 9.18946V9.18946ZM18.7512 12.1894L12.3119 5.7501L14.2512 3.81074L20.6905 10.2501L18.7512 12.1894Z" fill="#2E65F3"/>
<path d="M10.875 15.125C11.7034 15.125 12.375 14.4534 12.375 13.625C12.375 12.7966 11.7034 12.125 10.875 12.125C10.0466 12.125 9.375 12.7966 9.375 13.625C9.375 14.4534 10.0466 15.125 10.875 15.125Z" fill="#2E65F3"/>
</svg>
