<svg width="42" height="42" viewBox="0 0 42 42" fill="none" xmlns="http://www.w3.org/2000/svg">
<path d="M8.79316 32.5402C7.3071 31.0541 8.29275 27.9342 7.53635 26.1061C6.75225 24.2109 3.875 22.6857 3.875 20.6666C3.875 18.6475 6.75226 17.1223 7.53636 15.2273C8.29276 13.3991 7.3071 10.2792 8.79316 8.79316C10.2792 7.3071 13.3992 8.29275 15.2273 7.53635C17.1224 6.75225 18.6476 3.875 20.6667 3.875C22.6858 3.875 24.211 6.75226 26.1061 7.53636C27.9342 8.29276 31.0541 7.3071 32.5402 8.79316C34.0262 10.2792 33.0406 13.3992 33.797 15.2273C34.5811 17.1224 37.4583 18.6476 37.4583 20.6667C37.4583 22.6858 34.5811 24.211 33.797 26.1061C33.0406 27.9342 34.0262 31.0541 32.5402 32.5402C31.0541 34.0262 27.9342 33.0406 26.1061 33.797C24.2109 34.5811 22.6857 37.4583 20.6666 37.4583C18.6475 37.4583 17.1223 34.5811 15.2273 33.797C13.3991 33.0406 10.2792 34.0262 8.79316 32.5402Z" stroke="white" stroke-width="2.06667" stroke-linecap="round" stroke-linejoin="round"/>
<path d="M20.666 31C21.7361 31 22.6035 30.1326 22.6035 29.0625C22.6035 27.9924 21.7361 27.125 20.666 27.125C19.596 27.125 18.7285 27.9924 18.7285 29.0625C18.7285 30.1326 19.596 31 20.666 31Z" fill="white"/>
<path d="M20.6673 23.2508V21.9591C21.5615 21.9591 22.4355 21.6939 23.179 21.1972C23.9224 20.7004 24.5019 19.9944 24.844 19.1683C25.1862 18.3422 25.2757 17.4332 25.1013 16.5563C24.9268 15.6793 24.4963 14.8738 23.864 14.2415C23.2318 13.6093 22.4262 13.1787 21.5493 13.0043C20.6723 12.8299 19.7633 12.9194 18.9373 13.2615C18.1112 13.6037 17.4051 14.1832 16.9084 14.9266C16.4116 15.6701 16.1465 16.5441 16.1465 17.4383" stroke="white" stroke-width="2.06667" stroke-linecap="round" stroke-linejoin="round"/>
</svg>
