<svg width="38" height="38" viewBox="0 0 38 38" fill="none" xmlns="http://www.w3.org/2000/svg">
<path d="M14.0156 22.2542H23.3156" stroke="white" stroke-width="2.06667" stroke-linecap="round" stroke-linejoin="round"/>
<path d="M14.0156 17.6042H23.3156" stroke="white" stroke-width="2.06667" stroke-linecap="round" stroke-linejoin="round"/>
<path d="M23.3163 5.97919H29.1285C29.4368 5.97919 29.7325 6.10166 29.9505 6.31968C30.1685 6.53769 30.291 6.83337 30.291 7.14169V31.5542C30.291 31.8625 30.1685 32.1582 29.9505 32.3762C29.7325 32.5942 29.4368 32.7167 29.1285 32.7167H8.20352C7.8952 32.7167 7.59952 32.5942 7.3815 32.3762C7.16349 32.1582 7.04102 31.8625 7.04102 31.5542V7.14169C7.04102 6.83337 7.16349 6.53769 7.3815 6.31968C7.59952 6.10166 7.8952 5.97919 8.20352 5.97919H14.0157" stroke="white" stroke-width="2.06667" stroke-linecap="round" stroke-linejoin="round"/>
<path d="M12.8535 10.6292V9.46669C12.8535 7.92512 13.4659 6.44669 14.556 5.35663C15.646 4.26658 17.1244 3.65419 18.666 3.65419C20.2076 3.65419 21.686 4.26658 22.7761 5.35663C23.8661 6.44669 24.4785 7.92512 24.4785 9.46669V10.6292H12.8535Z" stroke="white" stroke-width="2.06667" stroke-linecap="round" stroke-linejoin="round"/>
</svg>
